<svg width="32" height="32" viewBox="0 0 32 32" fill="none" xmlns="http://www.w3.org/2000/svg">
<path fill-rule="evenodd" clip-rule="evenodd" d="M27.6667 9.33333C27.6667 9.88561 27.219 10.3333 26.6667 10.3333L5.33341 10.3333C4.78113 10.3333 4.33341 9.88561 4.33341 9.33333C4.33341 8.78104 4.78113 8.33333 5.33341 8.33333L26.6667 8.33333C27.219 8.33333 27.6667 8.78104 27.6667 9.33333Z" fill="white"/>
<path fill-rule="evenodd" clip-rule="evenodd" d="M27.6667 16C27.6667 16.5523 27.219 17 26.6667 17L5.33341 17C4.78113 17 4.33341 16.5523 4.33341 16C4.33341 15.4477 4.78113 15 5.33341 15L26.6667 15C27.219 15 27.6667 15.4477 27.6667 16Z" fill="white"/>
<path fill-rule="evenodd" clip-rule="evenodd" d="M27.6667 22.6667C27.6667 23.219 27.219 23.6667 26.6667 23.6667L5.33341 23.6667C4.78113 23.6667 4.33341 23.219 4.33341 22.6667C4.33341 22.1144 4.78113 21.6667 5.33341 21.6667L26.6667 21.6667C27.219 21.6667 27.6667 22.1144 27.6667 22.6667Z" fill="white"/>
</svg>
