<svg width="21" height="24" viewBox="0 0 21 24" fill="none" xmlns="http://www.w3.org/2000/svg">
  <path d="M16.6698 3.15195L18.3339 3.1557L15.8794 0.733143V2.34846C15.8794 2.79097 16.2344 3.15102 16.6698 3.15195Z"
    fill="#292929" />
  <path
    d="M19.1086 4.22907L16.6682 4.22345C15.6513 4.22063 14.8239 3.3797 14.8239 2.34845L14.8229 0H2.55436C2.18919 0 1.89244 0.300936 1.89244 0.671256V11.2651H19.1096L19.1086 4.22907Z"
    fill="#292929" />
  <path
    d="M1.89145 23.3287C1.89145 23.6991 2.1882 24 2.55337 24H18.4457C18.8109 24 19.1076 23.6991 19.1076 23.3287L19.1086 19.38H1.89138L1.89145 23.3287Z"
    fill="#292929" />
  <path
    d="M9.73731 14.1207V16.8226C10.4427 16.9951 11.5446 16.4054 11.4596 15.4717C11.3181 13.9098 9.73731 14.1207 9.73731 14.1207Z"
    fill="#292929" />
  <path
    d="M6.10144 14.1207H5.09101V15.2391H6.10144C6.4056 15.2391 6.65242 14.9888 6.65242 14.6804C6.65242 14.371 6.40558 14.1207 6.10144 14.1207Z"
    fill="#292929" />
  <path
    d="M0.709988 12.0965C0.317873 12.0965 0 12.4189 0 12.8165V17.8284C0 18.2261 0.317872 18.5484 0.709987 18.5484H20.29C20.6821 18.5484 21 18.2261 21 17.8284V12.8165C21 12.4189 20.6821 12.0965 20.29 12.0965H0.709988ZM6.10139 16.3097H5.09096V17.3578C5.09096 17.6541 4.8543 17.8931 4.56309 17.8931C4.27095 17.8931 4.03521 17.6531 4.03521 17.3578V13.5843C4.03521 13.2881 4.27187 13.049 4.56309 13.049H6.10232C6.98888 13.049 7.70996 13.7802 7.70996 14.6793C7.70904 15.5784 6.98795 16.3097 6.10139 16.3097ZM10.1284 17.8941H9.20953C8.91739 17.8941 8.68165 17.6541 8.68165 17.3588V13.5852C8.68165 13.289 8.91831 13.0499 9.20953 13.0499H10.1284C11.4458 13.0499 12.5173 14.1365 12.5173 15.4725C12.5164 16.8075 11.4449 17.8941 10.1284 17.8941ZM16.4369 14.1206H14.5769V14.8424H16.1614C16.4536 14.8424 16.6893 15.0824 16.6893 15.3778C16.6893 15.674 16.4526 15.9131 16.1614 15.9131H14.5769V17.3568C14.5769 17.6531 14.3402 17.8921 14.049 17.8921C13.7569 17.8921 13.5211 17.6521 13.5211 17.3568V13.5833C13.5211 13.287 13.7578 13.048 14.049 13.048H16.4379C16.73 13.048 16.9658 13.288 16.9658 13.5833C16.9658 13.8805 16.7291 14.1206 16.4369 14.1206Z"
    fill="#292929" />
</svg>
