<svg width="13" height="15" viewBox="0 0 13 15" fill="none" xmlns="http://www.w3.org/2000/svg">
  <path
    d="M11.75 6.06818C11.75 10.2045 6.25 13.75 6.25 13.75C6.25 13.75 0.75 10.2045 0.75 6.06818C0.75 4.65771 1.32946 3.30501 2.36091 2.30766C3.39236 1.31031 4.79131 0.75 6.25 0.75C7.70869 0.75 9.10764 1.31031 10.1391 2.30766C11.1705 3.30501 11.75 4.65771 11.75 6.06818Z"
    stroke="#292929" stroke-width="1.5" stroke-linecap="round" stroke-linejoin="round" />
  <path
    d="M6.25 7.84091C7.26252 7.84091 8.08333 7.04723 8.08333 6.06818C8.08333 5.08913 7.26252 4.29545 6.25 4.29545C5.23748 4.29545 4.41667 5.08913 4.41667 6.06818C4.41667 7.04723 5.23748 7.84091 6.25 7.84091Z"
    stroke="#292929" stroke-width="1.5" stroke-linecap="round" stroke-linejoin="round" />
</svg>
